<svg xmlns="http://www.w3.org/2000/svg" width="400" height="400" viewBox="0 0 400 400"><path d="M287.399 118.964c-48.808 44.355-89.511 81.33-90.451 82.167l-1.709 1.522-28.291-28.283-28.291-28.283-10.731 10.752-10.731 10.752 39.811 39.805 39.811 39.806 1.787-1.607c2.86-2.574 78.472-72.005 104.13-95.62 36.336-33.442 89.352-82.066 93.138-85.422 4.136-3.666 5.144-1.851-8.392-15.121l-11.338-11.114-88.743 80.646M50 200v150h300V139.662l-3.32 2.98c-1.826 1.638-9.209 8.4-16.407 15.026l-13.086 12.046v73.737l.001 73.737H82.813V82.813l104.128-.001H291.07l15.598-14.123c8.579-7.768 16.646-15.151 17.926-16.406L326.923 50H50v150" fill-rule="evenodd"/></svg>