<svg xmlns="http://www.w3.org/2000/svg" width="64" height="64" viewBox="0 0 48 48"><path d="M34.488 14.277c-5.855 5.32-10.742 9.758-10.855 9.86l-.203.183-6.79-6.789-2.578 2.578 9.555 9.555.215-.191c.344-.309 9.418-8.641 12.496-11.477 4.36-4.012 10.723-9.848 11.176-10.25.496-.441.617-.223-1.008-1.812l-1.36-1.336-10.648 9.68M6 24v18h36V16.758l-.398.36c-.22.195-1.106 1.007-1.97 1.804l-1.57 1.445v17.695H9.939V9.939H34.93l1.87-1.696a224.973 224.973 0 0 0 2.153-1.969L39.23 6H6v18" fill-rule="evenodd"/></svg>