<svg xmlns="http://www.w3.org/2000/svg" width="400" height="400" viewBox="0 0 400 400"><path d="M287.399 118.964c-48.808 44.355-89.511 81.33-90.451 82.167l-1.709 1.522-28.291-28.283-28.291-28.283-10.731 10.752-10.731 10.752 39.811 39.805 39.811 39.806 1.787-1.607c2.86-2.574 78.472-72.005 104.13-95.62 36.336-33.442 89.352-82.066 93.138-85.422 4.136-3.666 5.144-1.851-8.392-15.121l-11.338-11.114-88.743 80.646M50 81.641v31.64h32.813V82.813h32.031V50H50v31.641m99.219-15.235v16.407h34.375V50h-34.375v16.406m68.75 0v16.407h34.375V50h-34.375v16.406m68.75 0v16.407h2.175c1.936 0 22.463-17.554 35.7-30.53L326.923 50h-40.204v16.406m46.679 88.366l-16.21 14.908V182.031H350v-21.093c0-11.602-.088-21.09-.195-21.085-.108.006-7.491 6.719-16.407 14.919M50 164.844v17.187h32.813v-34.375H50v17.188m0 68.75v17.187h32.813v-34.375H50v17.188m267.188 0v17.187H350v-34.375h-32.812v17.188M50 317.578V350h64.844v-32.812H82.813v-32.032H50v32.422m267.188-16.406v16.016h-30.469V350H350v-64.844h-32.812v16.016m-167.969 32.422V350h34.375v-32.812h-34.375v16.406m68.75 0V350h34.375v-32.812h-34.375v16.406" fill-rule="evenodd"/></svg>