<svg xmlns="http://www.w3.org/2000/svg" width="64" height="64" viewBox="0 0 48 48"><path d="M34.488 14.277c-5.855 5.32-10.742 9.758-10.855 9.86l-.203.183-6.79-6.789-2.578 2.578 9.555 9.555.215-.191c.344-.309 9.418-8.641 12.496-11.477 4.36-4.012 10.723-9.848 11.176-10.25.496-.441.617-.223-1.008-1.812l-1.36-1.336-10.648 9.68M6 9.796v3.797h3.938V9.938h3.843V6H6v3.797m11.906-1.828v1.968h4.125V6h-4.125v1.969m8.25 0v1.968h4.125V6h-4.125v1.969m8.25 0v1.968h.262c.23 0 2.695-2.105 4.285-3.664L39.23 6h-4.824v1.969m5.602 10.605l-1.946 1.79v1.48H42v-2.532c0-1.39-.012-2.53-.023-2.53-.012 0-.899.808-1.97 1.792M6 19.781v2.063h3.938v-4.125H6v2.062m0 8.25v2.063h3.938v-4.125H6v2.062m32.063 0v2.063H42v-4.125h-3.938v2.062M6 38.11V42h7.781v-3.938H9.937V34.22H6v3.89m32.063-1.968v1.922h-3.657V42H42v-7.781h-3.938v1.922m-20.156 3.89V42h4.125v-3.938h-4.125v1.97m8.25 0V42h4.125v-3.938h-4.125v1.97" fill-rule="evenodd"/></svg>